<?xml version="1.0" encoding="utf-8"?>
<!-- Generator: Adobe Illustrator 17.0.0, SVG Export Plug-In . SVG Version: 6.00 Build 0)  -->
<!DOCTYPE svg PUBLIC "-//W3C//DTD SVG 1.1//EN" "http://www.w3.org/Graphics/SVG/1.1/DTD/svg11.dtd">
<svg version="1.1" id="Capa_1" xmlns="http://www.w3.org/2000/svg" xmlns:xlink="http://www.w3.org/1999/xlink" x="0px" y="0px"
	 width="512px" height="512px" viewBox="0 1072 512 512" enable-background="new 0 1072 512 512" xml:space="preserve">
<path fill="#35939C" d="M175.783,1483.325c0-4.1,0-8.015,0-11.929c0.004-25.954,0.021-51.908,0.003-77.862
	c-0.006-8.125-1.891-9.98-10.033-9.988c-14.61-0.015-29.22-0.016-43.83,0.013c-8.741,0.017-9.628,0.904-9.637,9.869
	c-0.028,28.017-0.015,56.033-0.017,84.05c0,1.857,0,3.714,0,5.933c-25.345,0-50.181,0-75.558,0c0-38.304,0-76.71,0-116.765
	c-7.806,6.265-14.505,11.642-21.028,16.877c-4.863-4.907-9.526-9.613-14.489-14.62c1.124-1.042,2.425-2.342,3.821-3.529
	c45.183-38.392,90.357-76.794,135.633-115.076c1.767-1.494,4.517-2.545,6.822-2.569c19.077-0.203,38.157-0.205,57.234,0.002
	c2.297,0.025,5.065,1.101,6.792,2.623c33.784,29.768,67.429,59.693,101.184,89.494c1.532,1.352,3.816,2.62,5.755,2.628
	c32.141,0.143,64.282,0.078,96.423,0.048c0.333,0,0.665-0.154,1.649-0.395c0-17.933,0-36.037,0-55.841
	c33.006,28.149,64.795,55.261,96.417,82.23c-4.947,4.933-9.648,9.622-14.806,14.766c-6.076-4.891-12.702-10.225-20.049-16.14
	c0,39.065,0,77.397,0,116.18C377.205,1483.325,276.935,1483.325,175.783,1483.325z"/>
<rect x="308.865" y="1373.83" fill="#FFFFFF" stroke="#35939C" stroke-width="7.2135" stroke-miterlimit="10" width="32.871" height="82.639"/>
<rect x="255.066" y="1373.83" fill="#FFFFFF" stroke="#35939C" stroke-width="7.2135" stroke-miterlimit="10" width="32.871" height="82.639"/>
<rect x="365.477" y="1373.83" fill="#FFFFFF" stroke="#35939C" stroke-width="7.2135" stroke-miterlimit="10" width="32.871" height="82.639"/>
<rect x="289.098" y="1193.303" fill="none" stroke="#35939C" stroke-width="7.4828" stroke-miterlimit="10" width="53.856" height="54.273"/>
<path fill="none" stroke="#35939C" stroke-width="9.8608" stroke-miterlimit="10" d="M398.515,1324.296
	c-4.715,0-8.478,0.001-12.242,0c-19.761-0.008-39.523,0.08-59.281-0.148c-2.458-0.028-5.438-1.133-7.263-2.762
	c-31.027-27.681-61.932-55.498-92.749-83.413c-1.415-1.282-2.334-3.72-2.467-5.688c-0.343-5.066-0.115-10.171-0.115-16.666
	c-6.132,5.053-11.219,9.246-15.944,13.14c-4.174-3.748-8.189-7.353-12.613-11.325c38.384-33.567,76.466-66.869,114.861-100.445
	c15.793,13.809,31.238,27.313,47.847,41.836c0-8.326,0.002-15.254-0.001-22.183c-0.001-3.952-0.122-7.908,0.014-11.856
	c0.195-5.637,2.738-8.115,8.327-8.168c7.216-0.069,14.434-0.04,21.651-0.012c7.581,0.029,9.835,2.273,9.838,9.763
	c0.008,20.62,0.094,41.241-0.081,61.859c-0.031,3.623,1.057,6.023,3.801,8.339c7.868,6.642,15.497,13.567,23.783,20.877
	c-3.75,4.014-7.312,7.826-11.241,12.031c-5.235-4.528-10.215-8.836-16.122-13.947
	C398.515,1252.269,398.515,1287.855,398.515,1324.296z"/>
</svg>
